<mxfile host="app.diagrams.net" modified="2023-08-14T04:49:57.697Z" agent="Mozilla/5.0 (X11; Linux x86_64; rv:109.0) Gecko/20100101 Firefox/115.0" etag="tgWxiiOAwQ4JcePDlWQG" version="21.6.6" type="device">
  <diagram name="Page-1" id="PRkF6NPm6eRyjLxU5dd9">
    <mxGraphModel dx="1434" dy="748" grid="1" gridSize="10" guides="1" tooltips="1" connect="1" arrows="1" fold="1" page="1" pageScale="1" pageWidth="850" pageHeight="1100" math="0" shadow="0">
      <root>
        <mxCell id="0" />
        <mxCell id="1" parent="0" />
        <mxCell id="PdLuTs7CNeg5tfp90sMr-1" value="&lt;div&gt;(Master)&lt;br&gt;&lt;/div&gt;&lt;div&gt;Message Director&lt;/div&gt;" style="whiteSpace=wrap;html=1;aspect=fixed;" vertex="1" parent="1">
          <mxGeometry x="385" y="320" width="80" height="80" as="geometry" />
        </mxCell>
        <mxCell id="PdLuTs7CNeg5tfp90sMr-2" value="Client Agent" style="whiteSpace=wrap;html=1;aspect=fixed;" vertex="1" parent="1">
          <mxGeometry x="385" y="480" width="80" height="80" as="geometry" />
        </mxCell>
        <mxCell id="PdLuTs7CNeg5tfp90sMr-4" value="Client Agent" style="whiteSpace=wrap;html=1;aspect=fixed;" vertex="1" parent="1">
          <mxGeometry x="530" y="480" width="80" height="80" as="geometry" />
        </mxCell>
        <mxCell id="PdLuTs7CNeg5tfp90sMr-5" value="Client Agent" style="whiteSpace=wrap;html=1;aspect=fixed;" vertex="1" parent="1">
          <mxGeometry x="240" y="480" width="80" height="80" as="geometry" />
        </mxCell>
        <mxCell id="PdLuTs7CNeg5tfp90sMr-6" value="Event Logger" style="whiteSpace=wrap;html=1;aspect=fixed;" vertex="1" parent="1">
          <mxGeometry x="580" y="330" width="80" height="80" as="geometry" />
        </mxCell>
        <mxCell id="PdLuTs7CNeg5tfp90sMr-8" value="MD" style="whiteSpace=wrap;html=1;aspect=fixed;" vertex="1" parent="1">
          <mxGeometry x="410" y="240" width="30" height="30" as="geometry" />
        </mxCell>
        <mxCell id="PdLuTs7CNeg5tfp90sMr-9" value="State Server" style="whiteSpace=wrap;html=1;aspect=fixed;" vertex="1" parent="1">
          <mxGeometry x="385" y="150" width="80" height="80" as="geometry" />
        </mxCell>
        <mxCell id="PdLuTs7CNeg5tfp90sMr-10" value="" style="endArrow=classic;startArrow=classic;html=1;rounded=0;exitX=0.5;exitY=0;exitDx=0;exitDy=0;entryX=0.5;entryY=1;entryDx=0;entryDy=0;" edge="1" parent="1" source="PdLuTs7CNeg5tfp90sMr-5" target="PdLuTs7CNeg5tfp90sMr-1">
          <mxGeometry width="50" height="50" relative="1" as="geometry">
            <mxPoint x="400" y="480" as="sourcePoint" />
            <mxPoint x="450" y="430" as="targetPoint" />
          </mxGeometry>
        </mxCell>
        <mxCell id="PdLuTs7CNeg5tfp90sMr-11" value="" style="endArrow=classic;startArrow=classic;html=1;rounded=0;entryX=0.5;entryY=1;entryDx=0;entryDy=0;exitX=0.5;exitY=0;exitDx=0;exitDy=0;" edge="1" parent="1" source="PdLuTs7CNeg5tfp90sMr-2" target="PdLuTs7CNeg5tfp90sMr-1">
          <mxGeometry width="50" height="50" relative="1" as="geometry">
            <mxPoint x="400" y="480" as="sourcePoint" />
            <mxPoint x="450" y="430" as="targetPoint" />
          </mxGeometry>
        </mxCell>
        <mxCell id="PdLuTs7CNeg5tfp90sMr-12" value="" style="endArrow=classic;startArrow=classic;html=1;rounded=0;entryX=0.5;entryY=1;entryDx=0;entryDy=0;exitX=0.5;exitY=0;exitDx=0;exitDy=0;" edge="1" parent="1" source="PdLuTs7CNeg5tfp90sMr-4" target="PdLuTs7CNeg5tfp90sMr-1">
          <mxGeometry width="50" height="50" relative="1" as="geometry">
            <mxPoint x="400" y="480" as="sourcePoint" />
            <mxPoint x="450" y="430" as="targetPoint" />
          </mxGeometry>
        </mxCell>
        <mxCell id="PdLuTs7CNeg5tfp90sMr-13" value="" style="endArrow=classic;startArrow=classic;html=1;rounded=0;entryX=0.5;entryY=1;entryDx=0;entryDy=0;exitX=0.5;exitY=0;exitDx=0;exitDy=0;" edge="1" parent="1" source="PdLuTs7CNeg5tfp90sMr-1" target="PdLuTs7CNeg5tfp90sMr-8">
          <mxGeometry width="50" height="50" relative="1" as="geometry">
            <mxPoint x="400" y="480" as="sourcePoint" />
            <mxPoint x="450" y="430" as="targetPoint" />
          </mxGeometry>
        </mxCell>
        <mxCell id="PdLuTs7CNeg5tfp90sMr-14" value="" style="endArrow=none;html=1;rounded=0;entryX=0.5;entryY=1;entryDx=0;entryDy=0;exitX=0.5;exitY=0;exitDx=0;exitDy=0;" edge="1" parent="1" source="PdLuTs7CNeg5tfp90sMr-8" target="PdLuTs7CNeg5tfp90sMr-9">
          <mxGeometry width="50" height="50" relative="1" as="geometry">
            <mxPoint x="400" y="480" as="sourcePoint" />
            <mxPoint x="450" y="430" as="targetPoint" />
          </mxGeometry>
        </mxCell>
        <mxCell id="PdLuTs7CNeg5tfp90sMr-16" value="" style="endArrow=classic;startArrow=classic;html=1;rounded=0;entryX=1;entryY=0.5;entryDx=0;entryDy=0;exitX=0;exitY=0.5;exitDx=0;exitDy=0;" edge="1" parent="1" source="PdLuTs7CNeg5tfp90sMr-6" target="PdLuTs7CNeg5tfp90sMr-1">
          <mxGeometry width="50" height="50" relative="1" as="geometry">
            <mxPoint x="400" y="480" as="sourcePoint" />
            <mxPoint x="450" y="430" as="targetPoint" />
          </mxGeometry>
        </mxCell>
        <mxCell id="PdLuTs7CNeg5tfp90sMr-17" value="UDP" style="text;html=1;strokeColor=none;fillColor=none;align=center;verticalAlign=middle;whiteSpace=wrap;rounded=0;rotation=0;fontStyle=3" vertex="1" parent="1">
          <mxGeometry x="491.5" y="340" width="70" height="20" as="geometry" />
        </mxCell>
        <mxCell id="PdLuTs7CNeg5tfp90sMr-18" value="Trusted Zone" style="text;html=1;strokeColor=none;fillColor=none;align=center;verticalAlign=middle;whiteSpace=wrap;rounded=0;" vertex="1" parent="1">
          <mxGeometry x="120" y="480" width="110" height="30" as="geometry" />
        </mxCell>
        <mxCell id="PdLuTs7CNeg5tfp90sMr-19" value="" style="endArrow=none;dashed=1;html=1;dashPattern=1 3;strokeWidth=2;rounded=0;exitX=1;exitY=0.5;exitDx=0;exitDy=0;entryX=0;entryY=0.5;entryDx=0;entryDy=0;" edge="1" parent="1" source="PdLuTs7CNeg5tfp90sMr-5" target="PdLuTs7CNeg5tfp90sMr-2">
          <mxGeometry width="50" height="50" relative="1" as="geometry">
            <mxPoint x="400" y="480" as="sourcePoint" />
            <mxPoint x="450" y="430" as="targetPoint" />
          </mxGeometry>
        </mxCell>
        <mxCell id="PdLuTs7CNeg5tfp90sMr-20" value="" style="endArrow=none;dashed=1;html=1;dashPattern=1 3;strokeWidth=2;rounded=0;exitX=1;exitY=0.5;exitDx=0;exitDy=0;entryX=0;entryY=0.5;entryDx=0;entryDy=0;" edge="1" parent="1" source="PdLuTs7CNeg5tfp90sMr-2" target="PdLuTs7CNeg5tfp90sMr-4">
          <mxGeometry width="50" height="50" relative="1" as="geometry">
            <mxPoint x="400" y="480" as="sourcePoint" />
            <mxPoint x="450" y="430" as="targetPoint" />
          </mxGeometry>
        </mxCell>
        <mxCell id="PdLuTs7CNeg5tfp90sMr-22" value="" style="endArrow=none;dashed=1;html=1;dashPattern=1 3;strokeWidth=2;rounded=0;exitX=0;exitY=0.5;exitDx=0;exitDy=0;" edge="1" parent="1" source="PdLuTs7CNeg5tfp90sMr-5">
          <mxGeometry width="50" height="50" relative="1" as="geometry">
            <mxPoint x="400" y="480" as="sourcePoint" />
            <mxPoint x="90" y="520" as="targetPoint" />
          </mxGeometry>
        </mxCell>
        <mxCell id="PdLuTs7CNeg5tfp90sMr-23" value="Public Internet" style="ellipse;shape=cloud;whiteSpace=wrap;html=1;" vertex="1" parent="1">
          <mxGeometry x="328" y="600" width="195" height="80" as="geometry" />
        </mxCell>
        <mxCell id="PdLuTs7CNeg5tfp90sMr-24" value="" style="endArrow=classic;startArrow=classic;html=1;rounded=0;exitX=0.5;exitY=1;exitDx=0;exitDy=0;entryX=0.25;entryY=0.25;entryDx=0;entryDy=0;entryPerimeter=0;" edge="1" parent="1" source="PdLuTs7CNeg5tfp90sMr-5" target="PdLuTs7CNeg5tfp90sMr-23">
          <mxGeometry width="50" height="50" relative="1" as="geometry">
            <mxPoint x="400" y="480" as="sourcePoint" />
            <mxPoint x="450" y="430" as="targetPoint" />
          </mxGeometry>
        </mxCell>
        <mxCell id="PdLuTs7CNeg5tfp90sMr-25" value="" style="endArrow=classic;startArrow=classic;html=1;rounded=0;exitX=0.625;exitY=0.2;exitDx=0;exitDy=0;exitPerimeter=0;entryX=0.5;entryY=1;entryDx=0;entryDy=0;" edge="1" parent="1" source="PdLuTs7CNeg5tfp90sMr-23" target="PdLuTs7CNeg5tfp90sMr-2">
          <mxGeometry width="50" height="50" relative="1" as="geometry">
            <mxPoint x="400" y="480" as="sourcePoint" />
            <mxPoint x="450" y="430" as="targetPoint" />
          </mxGeometry>
        </mxCell>
        <mxCell id="PdLuTs7CNeg5tfp90sMr-26" value="" style="endArrow=classic;startArrow=classic;html=1;rounded=0;exitX=0.88;exitY=0.25;exitDx=0;exitDy=0;exitPerimeter=0;entryX=0.5;entryY=1;entryDx=0;entryDy=0;" edge="1" parent="1" source="PdLuTs7CNeg5tfp90sMr-23" target="PdLuTs7CNeg5tfp90sMr-4">
          <mxGeometry width="50" height="50" relative="1" as="geometry">
            <mxPoint x="400" y="480" as="sourcePoint" />
            <mxPoint x="450" y="430" as="targetPoint" />
          </mxGeometry>
        </mxCell>
        <mxCell id="PdLuTs7CNeg5tfp90sMr-27" value="" style="image;aspect=fixed;perimeter=ellipsePerimeter;html=1;align=center;shadow=0;dashed=0;spacingTop=3;image=img/lib/active_directory/laptop_client.svg;" vertex="1" parent="1">
          <mxGeometry x="300" y="700" width="45" height="50" as="geometry" />
        </mxCell>
        <mxCell id="PdLuTs7CNeg5tfp90sMr-29" value="" style="image;aspect=fixed;perimeter=ellipsePerimeter;html=1;align=center;shadow=0;dashed=0;spacingTop=3;image=img/lib/active_directory/vista_client.svg;" vertex="1" parent="1">
          <mxGeometry x="406" y="710" width="38" height="50" as="geometry" />
        </mxCell>
        <mxCell id="PdLuTs7CNeg5tfp90sMr-30" value="" style="image;aspect=fixed;perimeter=ellipsePerimeter;html=1;align=center;shadow=0;dashed=0;spacingTop=3;image=img/lib/active_directory/mac_client.svg;" vertex="1" parent="1">
          <mxGeometry x="503" y="700" width="47" height="50" as="geometry" />
        </mxCell>
        <mxCell id="PdLuTs7CNeg5tfp90sMr-31" value="" style="endArrow=classic;startArrow=classic;html=1;rounded=0;exitX=1;exitY=0;exitDx=0;exitDy=0;entryX=0.31;entryY=0.8;entryDx=0;entryDy=0;entryPerimeter=0;" edge="1" parent="1" source="PdLuTs7CNeg5tfp90sMr-27" target="PdLuTs7CNeg5tfp90sMr-23">
          <mxGeometry width="50" height="50" relative="1" as="geometry">
            <mxPoint x="400" y="510" as="sourcePoint" />
            <mxPoint x="450" y="460" as="targetPoint" />
          </mxGeometry>
        </mxCell>
        <mxCell id="PdLuTs7CNeg5tfp90sMr-32" value="" style="endArrow=classic;startArrow=classic;html=1;rounded=0;exitX=0.5;exitY=0;exitDx=0;exitDy=0;entryX=0.55;entryY=0.95;entryDx=0;entryDy=0;entryPerimeter=0;" edge="1" parent="1" source="PdLuTs7CNeg5tfp90sMr-29" target="PdLuTs7CNeg5tfp90sMr-23">
          <mxGeometry width="50" height="50" relative="1" as="geometry">
            <mxPoint x="400" y="510" as="sourcePoint" />
            <mxPoint x="450" y="460" as="targetPoint" />
          </mxGeometry>
        </mxCell>
        <mxCell id="PdLuTs7CNeg5tfp90sMr-33" value="" style="endArrow=classic;startArrow=classic;html=1;rounded=0;exitX=0.25;exitY=0;exitDx=0;exitDy=0;entryX=0.8;entryY=0.8;entryDx=0;entryDy=0;entryPerimeter=0;" edge="1" parent="1" source="PdLuTs7CNeg5tfp90sMr-30" target="PdLuTs7CNeg5tfp90sMr-23">
          <mxGeometry width="50" height="50" relative="1" as="geometry">
            <mxPoint x="400" y="510" as="sourcePoint" />
            <mxPoint x="450" y="460" as="targetPoint" />
          </mxGeometry>
        </mxCell>
        <mxCell id="PdLuTs7CNeg5tfp90sMr-34" value="" style="endArrow=none;html=1;rounded=0;entryX=0.5;entryY=1;entryDx=0;entryDy=0;exitX=0.5;exitY=0;exitDx=0;exitDy=0;" edge="1" source="PdLuTs7CNeg5tfp90sMr-36" target="PdLuTs7CNeg5tfp90sMr-35" parent="1">
          <mxGeometry width="50" height="50" relative="1" as="geometry">
            <mxPoint x="518" y="480" as="sourcePoint" />
            <mxPoint x="568" y="430" as="targetPoint" />
          </mxGeometry>
        </mxCell>
        <mxCell id="PdLuTs7CNeg5tfp90sMr-35" value="State Server" style="whiteSpace=wrap;html=1;aspect=fixed;" vertex="1" parent="1">
          <mxGeometry x="503" y="150" width="80" height="80" as="geometry" />
        </mxCell>
        <mxCell id="PdLuTs7CNeg5tfp90sMr-36" value="MD" style="whiteSpace=wrap;html=1;aspect=fixed;" vertex="1" parent="1">
          <mxGeometry x="528" y="240" width="30" height="30" as="geometry" />
        </mxCell>
        <mxCell id="PdLuTs7CNeg5tfp90sMr-37" value="" style="endArrow=none;html=1;rounded=0;entryX=0.5;entryY=1;entryDx=0;entryDy=0;exitX=0.5;exitY=0;exitDx=0;exitDy=0;" edge="1" source="PdLuTs7CNeg5tfp90sMr-39" target="PdLuTs7CNeg5tfp90sMr-38" parent="1">
          <mxGeometry width="50" height="50" relative="1" as="geometry">
            <mxPoint x="280" y="480" as="sourcePoint" />
            <mxPoint x="330" y="430" as="targetPoint" />
          </mxGeometry>
        </mxCell>
        <mxCell id="PdLuTs7CNeg5tfp90sMr-38" value="State Server" style="whiteSpace=wrap;html=1;aspect=fixed;" vertex="1" parent="1">
          <mxGeometry x="265" y="150" width="80" height="80" as="geometry" />
        </mxCell>
        <mxCell id="PdLuTs7CNeg5tfp90sMr-39" value="MD" style="whiteSpace=wrap;html=1;aspect=fixed;" vertex="1" parent="1">
          <mxGeometry x="290" y="240" width="30" height="30" as="geometry" />
        </mxCell>
        <mxCell id="PdLuTs7CNeg5tfp90sMr-40" value="" style="endArrow=classic;startArrow=classic;html=1;rounded=0;exitX=0.5;exitY=1;exitDx=0;exitDy=0;entryX=0;entryY=0;entryDx=0;entryDy=0;" edge="1" parent="1" source="PdLuTs7CNeg5tfp90sMr-39" target="PdLuTs7CNeg5tfp90sMr-1">
          <mxGeometry width="50" height="50" relative="1" as="geometry">
            <mxPoint x="295" y="310" as="sourcePoint" />
            <mxPoint x="345" y="260" as="targetPoint" />
          </mxGeometry>
        </mxCell>
        <mxCell id="PdLuTs7CNeg5tfp90sMr-41" value="" style="endArrow=classic;startArrow=classic;html=1;rounded=0;entryX=0.5;entryY=1;entryDx=0;entryDy=0;exitX=1;exitY=0;exitDx=0;exitDy=0;" edge="1" parent="1" source="PdLuTs7CNeg5tfp90sMr-1" target="PdLuTs7CNeg5tfp90sMr-36">
          <mxGeometry width="50" height="50" relative="1" as="geometry">
            <mxPoint x="400" y="470" as="sourcePoint" />
            <mxPoint x="450" y="420" as="targetPoint" />
          </mxGeometry>
        </mxCell>
        <mxCell id="PdLuTs7CNeg5tfp90sMr-43" value="Database Server" style="whiteSpace=wrap;html=1;aspect=fixed;" vertex="1" parent="1">
          <mxGeometry x="198" y="320" width="80" height="80" as="geometry" />
        </mxCell>
        <mxCell id="PdLuTs7CNeg5tfp90sMr-44" value="" style="endArrow=classic;startArrow=classic;html=1;rounded=0;entryX=0;entryY=0.5;entryDx=0;entryDy=0;exitX=1;exitY=0.5;exitDx=0;exitDy=0;" edge="1" parent="1" source="PdLuTs7CNeg5tfp90sMr-45" target="PdLuTs7CNeg5tfp90sMr-1">
          <mxGeometry width="50" height="50" relative="1" as="geometry">
            <mxPoint x="340" y="390" as="sourcePoint" />
            <mxPoint x="450" y="420" as="targetPoint" />
          </mxGeometry>
        </mxCell>
        <mxCell id="PdLuTs7CNeg5tfp90sMr-45" value="MD" style="whiteSpace=wrap;html=1;aspect=fixed;" vertex="1" parent="1">
          <mxGeometry x="290" y="345" width="30" height="30" as="geometry" />
        </mxCell>
        <mxCell id="PdLuTs7CNeg5tfp90sMr-46" value="" style="endArrow=none;html=1;rounded=0;entryX=0;entryY=0.5;entryDx=0;entryDy=0;exitX=1;exitY=0.5;exitDx=0;exitDy=0;" edge="1" parent="1" source="PdLuTs7CNeg5tfp90sMr-43" target="PdLuTs7CNeg5tfp90sMr-45">
          <mxGeometry width="50" height="50" relative="1" as="geometry">
            <mxPoint x="428" y="450" as="sourcePoint" />
            <mxPoint x="478" y="400" as="targetPoint" />
          </mxGeometry>
        </mxCell>
        <mxCell id="PdLuTs7CNeg5tfp90sMr-47" value="SQL*" style="shape=cylinder3;whiteSpace=wrap;html=1;boundedLbl=1;backgroundOutline=1;size=15;" vertex="1" parent="1">
          <mxGeometry x="110" y="265" width="60" height="80" as="geometry" />
        </mxCell>
        <mxCell id="PdLuTs7CNeg5tfp90sMr-48" value="" style="endArrow=classic;startArrow=classic;html=1;rounded=0;entryX=1;entryY=0;entryDx=0;entryDy=52.5;entryPerimeter=0;exitX=0;exitY=0.25;exitDx=0;exitDy=0;" edge="1" parent="1" source="PdLuTs7CNeg5tfp90sMr-43" target="PdLuTs7CNeg5tfp90sMr-47">
          <mxGeometry width="50" height="50" relative="1" as="geometry">
            <mxPoint x="408" y="450" as="sourcePoint" />
            <mxPoint x="458" y="400" as="targetPoint" />
          </mxGeometry>
        </mxCell>
        <mxCell id="PdLuTs7CNeg5tfp90sMr-49" value="" style="endArrow=none;dashed=1;html=1;dashPattern=1 3;strokeWidth=2;rounded=0;exitX=0;exitY=0.5;exitDx=0;exitDy=0;" edge="1" parent="1">
          <mxGeometry width="50" height="50" relative="1" as="geometry">
            <mxPoint x="760" y="519.5" as="sourcePoint" />
            <mxPoint x="610" y="519.5" as="targetPoint" />
          </mxGeometry>
        </mxCell>
        <mxCell id="PdLuTs7CNeg5tfp90sMr-50" value="* Could be a different database backend, such as MongoDB." style="text;html=1;strokeColor=none;fillColor=none;align=center;verticalAlign=middle;whiteSpace=wrap;rounded=0;" vertex="1" parent="1">
          <mxGeometry x="100" y="680" width="130" height="50" as="geometry" />
        </mxCell>
      </root>
    </mxGraphModel>
  </diagram>
</mxfile>
